<?xml version="1.0" encoding="UTF-8"?>
<svg version="1.1" xmlns="http://www.w3.org/2000/svg" width="16" height="16">
<path d="M0 0 C5.28 0 10.56 0 16 0 C15.09353725 4.53231376 14.45887001 6.21820658 11.9375 9.8125 C11.11572266 10.99779297 11.11572266 10.99779297 10.27734375 12.20703125 C9.85582031 12.79871094 9.43429687 13.39039063 9 14 C5.37640811 12.56759722 4.06444274 10.97298034 2.25 7.5625 C1.82203125 6.78003906 1.3940625 5.99757813 0.953125 5.19140625 C0 3 0 3 0 0 Z " fill="#F44847" transform="translate(0,1)"/>
<path d="M0 0 C3.3 0 6.6 0 10 0 C8.87548273 2.9719385 7.77706209 5.33440687 6 8 C5.34 8 4.68 8 4 8 C0 2.58823529 0 2.58823529 0 0 Z " fill="#E8CCCC" transform="translate(3,3)"/>
<path d="M0 0 C0.99 0 1.98 0 3 0 C2.44010697 3.99012371 1.24330232 6.5255052 -1.0625 9.8125 C-1.88427734 10.99779297 -1.88427734 10.99779297 -2.72265625 12.20703125 C-3.35494141 13.09455078 -3.35494141 13.09455078 -4 14 C-4.99 13.67 -5.98 13.34 -7 13 C-6.67 12.34 -6.34 11.68 -6 11 C-5.34 11 -4.68 11 -4 11 C-3.896875 10.484375 -3.79375 9.96875 -3.6875 9.4375 C-2.75736134 6.13973565 -1.38604488 3.13366668 0 0 Z " fill="#DF3838" transform="translate(13,1)"/>
</svg>
